<svg xmlns:xlink="http://www.w3.org/1999/xlink"
    style=""
    class="icon"
    height="64"
    p-id="2126"
    t="1512229619074"
    version="1.1"
    viewBox="0 0 5113 1024"
    width="319.5625"
    xmlns="http://www.w3.org/2000/svg">
    <defs>
        <style type="text/css"></style>
    </defs>
    <path
        d="M613.579838 410.471892c60.599364 60.895665 110.143759 160.603723 81.781882 219.840105-75.85291 158.425915-641.774883 436.252014-689.852591 388.174306-48.074745-48.077708 229.961728-614.210054 388.390606-690.062964 59.242308-28.367803 158.968145 21.197333 219.863809 81.808549 0 0-0.05926 0.082964-0.186669 0.237041z"
        fill="#FF8200"
        p-id="2127"></path>
    <path
        d="M913.394393 343.587995h0.005926c-9.854952-36.444953-34.969377-73.254356-72.463234-77.615898-68.756515-8.000112-177.152102 113.571955-169.418661 142.425692 7.733441 28.859662 160.858541 79.716668 218.062303 38.604983 29.481893-21.191407 33.630099-66.963898 23.947001-103.450333l-0.133335 0.035556zM700.573645 6.771443c51.08812 13.822415 102.685878 49.031795 108.798555 101.589566 11.212008 96.401345-159.231852 248.370874-199.688713 237.532204-40.459824-10.844596-111.764523-225.532036-54.128163-305.734638 29.710044-41.336873 93.885755-47.153251 145.042025-33.570839l-0.020741 0.183707zM2223.383046 577.446074l-50.619966-7.674181c-48.234747-7.117136-76.155137-22.729206-76.155137-51.179974 0-32.616752 36.341248-52.874812 90.078294-52.874812 38.00053 0 68.931332 14.243162 98.543598 29.324854l5.890452 2.989671a47.757704 47.757704 0 0 0 21.798823 5.223777 48.23771 48.23771 0 0 0 42.24059-24.909978l4.133391-7.472696a49.022906 49.022906 0 0 0 3.920054-38.554613c-4.014871-12.933514-12.883143-23.386993-24.960348-29.44041-43.141343-21.603264-89.933107-40.996128-151.56656-40.996128-128.816613 0-211.804437 62.199387-211.804437 162.325228 0 82.187814 59.061565 133.708533 170.832014 148.994672l51.064416 6.646019c53.965198 7.570476 80.199638 23.538106 80.199638 48.824385 0 23.360326-12.628324 54.415574-96.217639 54.415574-46.080643 0-92.869444-11.694978-130.852197-35.757536a47.206585 47.206585 0 0 0-25.286279-7.336398c-16.675788 0-32.504157 8.850494-41.310206 23.102544l-2.838558 4.604509a49.8644 49.8644 0 0 0-5.831193 38.486463c3.354121 12.9987 11.591273 23.745517 23.185509 30.267089 66.229072 37.242001 142.668658 50.457 182.932924 50.457001 134.292245 0 217.431183-58.86897 217.431182-162.431897 0-82.875231-58.824525-130.378116-174.808365-147.033163zM3788.735263 762.586435l-3.804498-4.251911a51.283679 51.283679 0 0 0-38.15757-17.028386 51.704425 51.704425 0 0 0-27.772239 8.100854c-27.324826 17.345427-57.277836 26.515926-86.629357 26.515926-80.69446 0-139.261203-63.725334-139.261203-151.528041 0-87.799744 58.566743-151.528041 139.261203-151.52804 30.975247 0 58.691189 8.414932 84.733034 25.739618 20.163244 13.404632 49.135501 9.97051 65.704621-7.727515l4.305245-4.574879a56.258563 56.258563 0 0 0 14.826874-45.082111c-1.887434-16.231338-10.726076-30.68191-24.237376-39.636108-39.674628-26.311478-88.866425-40.213895-142.262726-40.213895-154.87031 0-263.037745 108.16151-263.037745 263.025893 0 154.867347 108.167436 263.028856 263.037745 263.028856 53.606674 0 103.071068-14.189828 143.04496-41.031683a55.674851 55.674851 0 0 0 24.151448-39.327957 56.202266 56.202266 0 0 0-13.899453-44.480621zM1278.558008 183.410945c-40.308711 0-71.882485 31.976743-71.882485 72.801016 0 40.97835 30.904135 71.879522 71.882485 71.879522 40.82131 0 72.79509-31.570811 72.79509-71.882485 0-40.82131-31.97378-72.801016-72.79509-72.801016zM1300.315348 365.629784h-42.406518c-20.773623 0-37.61534 16.841717-37.615339 37.61534v433.769017c0 20.782512 16.847643 37.630155 37.630154 37.630155h42.376888c20.782512 0 37.630155-16.847643 37.630155-37.630155V403.245124c0-20.773623-16.838754-37.61534-37.61534-37.61534zM2692.797004 475.23724c20.782512 0 37.630155-16.847643 37.630155-37.630155v-34.347146c0-20.782512-16.847643-37.630155-37.630155-37.630155h-103.242922v-112.914168c0-20.782512-16.847643-37.630155-37.630155-37.630155h-44.738402c-20.782512 0-37.630155 16.847643-37.630155 37.630155v411.173146c0 118.36017 89.820513 223.022372 214.201508 223.022372h0.044445c12.414988 0 24.109966-4.86229 32.936756-13.68908 8.82679-8.82679 13.68908-20.521768 13.68908-32.936756v-28.990035c0-20.892143-17.090609-37.547191-37.985715-37.630154-47.585849-0.183706-102.887362-37.479042-102.887362-102.771805v-195.656064h103.242922zM1664.913029 361.371947c-150.538397 0-234.486236 120.395754-234.486235 223.43423v252.210927c0 20.779549 16.847643 37.630155 37.630155 37.630155h42.89245c20.782512 0 37.630155-16.850606 37.630155-37.630155v-233.280293c0-78.104794 47.322142-129.841812 116.336438-129.841812s116.336438 51.737018 116.336439 129.838849v233.280293c0 20.782512 16.847643 37.630155 37.630154 37.630155h42.889488c20.782512 0 37.630155-16.847643 37.630155-37.630155v-252.210927c0-103.035512-83.944875-223.431266-234.486236-223.431267zM4783.267661 382.015198a34.261219 34.261219 0 0 0-21.91438-15.419474c-16.305413-3.564494-57.227465-5.223777-78.404057-5.223777-1.911138 0-3.78672 0.068149-5.635634 0.068149-116.570516 0-224.174981 95.023548-224.174981 225.997228-0.008889 0.106668-0.035556 0.231114-0.035556 0.325931v249.250886c0 20.782512 16.847643 37.630155 37.630155 37.630155h42.89245c20.782512 0 37.630155-16.847643 37.630155-37.630155V591.748496c0-71.304699 50.904414-117.779422 113.281581-117.779422 11.422382 0.17778 23.68033 1.457798 35.683461 3.834128 3.271157 0.642972 6.604537 0.968902 9.905324 0.968902 23.792925 0 44.415435-16.432822 49.991808-39.576849 3.060783-12.711289 5.312667-22.175124 7.434178-30.815244s0.675565-18.441739-4.281541-26.364813zM5075.923597 475.23724c20.782512 0 37.630155-16.847643 37.630155-37.630155v-34.347146c0-20.782512-16.847643-37.630155-37.630155-37.630155h-103.242922v-112.914168c0-20.782512-16.847643-37.630155-37.630155-37.630155h-44.735439c-20.782512 0-37.630155 16.847643-37.630155 37.630155v411.173146c0 118.36017 89.820513 223.022372 214.201508 223.022372h0.041482c12.414988 0 24.112929-4.86229 32.936756-13.68908 8.82679-8.82679 13.68908-20.521768 13.68908-32.936756v-28.990035c0-20.892143-17.090609-37.547191-37.982752-37.630154-47.585849-0.183706-102.890325-37.479042-102.890325-102.771805v-195.656064h103.242922zM4372.453039 624.39784c0-98.291742-43.618387-177.718036-115.053458-222.669774-0.065186-0.041482-0.124446-0.097779-0.192595-0.142224-39.674628-26.311478-88.866425-40.213895-142.265689-40.213895-0.930383 0-1.837063 0.053334-2.76152 0.05926-0.92742-0.005926-1.837063-0.05926-2.764483-0.05926-53.399264 0-102.588098 13.905379-142.26569 40.213895-0.065186 0.044445-0.124446 0.097779-0.189632 0.142224-71.438034 44.951738-115.053458 124.375069-115.053457 222.669774 0 102.9644 47.85252 185.235178 125.421009 228.847639 36.163468 21.345483 79.0974 34.07455 125.373602 34.107142 84.519698 0.05926 135.551521-47.825853 151.599153-68.729848v18.020992c0 20.782512 16.847643 37.630155 37.630154 37.630155h42.892451c20.782512 0 37.630155-16.847643 37.630155-37.630155V624.400803z m-213.007418 143.631634c-13.739451 4.548212-27.73372 7.179359-41.645025 7.763072-1.01631 0.032593-2.035584 0.05926-3.060784 0.074075-0.853345 0.017778-1.709653 0.047408-2.560035 0.050371-0.853345 0-1.70669-0.032593-2.560036-0.050371-1.025199-0.014815-2.044473-0.041482-3.063747-0.077038-13.908342-0.580749-27.902612-3.211897-41.645025-7.760109-55.467441-19.585459-92.297584-74.021774-92.297585-143.631634 0-82.202629 51.337013-143.296815 124.102473-150.757659l1.155572-0.100743a147.033163 147.033163 0 0 1 4.963032-0.373338 150.535434 150.535434 0 0 1 7.668255-0.26667c0.560008-0.005926 1.11409-0.02963 1.677061-0.02963 0.562971 0 1.117053 0.023704 1.67706 0.02963a150.529508 150.529508 0 0 1 12.631287 0.640008l1.155572 0.100743c72.76546 7.460845 124.09951 68.555031 124.09951 150.757659 0 69.60986-36.830144 124.049139-92.297585 143.631634zM3301.884023 624.39784c0-98.291742-43.615424-177.718036-115.047531-222.669774-0.068149-0.041482-0.127409-0.097779-0.192595-0.142224-39.677591-26.311478-88.869388-40.213895-142.26569-40.213895-0.930383 0-1.837063 0.053334-2.764483 0.05926-0.92742-0.005926-1.8341-0.05926-2.764483-0.05926-53.396301 0-102.588098 13.905379-142.262726 40.213895-0.068149 0.044445-0.127409 0.097779-0.192595 0.142224-71.435071 44.951738-115.053458 124.375069-115.053458 222.669774 0 102.9644 47.85252 185.235178 125.42101 228.847639 36.163468 21.345483 79.0974 34.07455 125.373602 34.107142 84.519698 0.05926 135.551521-47.825853 151.602115-68.729848v18.020992c0 20.782512 16.847643 37.630155 37.630155 37.630155h42.889488c20.782512 0 37.630155-16.847643 37.630154-37.630155V624.400803z m-213.004454 143.631634c-13.739451 4.548212-27.73372 7.179359-41.645025 7.763072-1.01631 0.032593-2.035584 0.05926-3.060784 0.074075-0.853345 0.017778-1.70669 0.047408-2.560036 0.050371-0.853345 0-1.70669-0.032593-2.560035-0.050371a150.313209 150.313209 0 0 1-3.060784-0.077038c-13.911305-0.580749-27.905575-3.211897-41.645025-7.760109-55.467441-19.585459-92.297584-74.021774-92.297585-143.631634 0-82.202629 51.33405-143.296815 124.09951-150.757659l1.155572-0.100743a146.935384 146.935384 0 0 1 4.963032-0.373338 150.529508 150.529508 0 0 1 7.668255-0.26667c0.562971-0.005926 1.11409-0.02963 1.67706-0.02963 0.562971 0 1.117053 0.023704 1.677061 0.02963a150.529508 150.529508 0 0 1 12.63425 0.640008l1.152609 0.100743c72.76546 7.460845 124.102473 68.555031 124.102473 150.757659 0 69.60986-36.833107 124.049139-92.297585 143.631634z"
        fill="#43B02A"
        p-id="2128"></path>
</svg>