<svg xmlns:xlink="http://www.w3.org/1999/xlink"
    style=""
    class="icon"
    height="128"
    p-id="1965"
    t="1512227853340"
    version="1.1"
    viewBox="0 0 2187 1024"
    width="273.375"
    xmlns="http://www.w3.org/2000/svg">
    <defs>
        <style type="text/css"></style>
    </defs>
    <path
        d="M1565.124691 208.804787H1472.522525v181.7645c0 59.228938 63.261062 109.8469 141.488821 109.8469s146.682743-51.187471 146.682743-109.8469v-181.78728h-92.602167v163.950257c0 27.040288-23.008164 48.886654-51.210251 48.886654-28.748815 0-51.75698-21.869146-51.75698-49.456163V208.804787zM96.064782 108.707882v377.333897H0V31.049632h173.130742c75.357434 0 136.909969 60.983026 136.909969 135.178661 0 63.283842-44.307802 116.17984-104.106249 130.007519l133.424573 189.805967H224.910503l-96.064782-148.98356v-108.707882h22.438655c35.651265 0 64.42286-26.447999 64.422861-59.228938S188.666948 108.685102 152.992903 108.685102h-56.950902zM980.147805 486.041779V9.203266h-90.893639v224.910502c-24.147182-23.600454-54.627305-36.813063-89.731842-36.813063-74.765144 0-135.74817 66.131388-135.74817 148.391271 0 81.690374 60.983026 148.414051 135.770951 148.414051 35.651265 0 69.024493-13.804899 89.709061-39.11388v31.049632h90.893639z m-154.72421-69.594003c-36.813063 0-66.746457-32.80372-66.746458-73.056617s29.933394-73.056617 66.746458-73.056617 66.723677 32.80372 66.723676 73.056617c-0.592289 40.275678-30.502903 73.056617-66.746457 73.056617M1362.083335 238.715401c24.716692-23.008164 40.252898-54.080577 40.252898-88.023314 0-31.049632-12.073591-59.228938-32.80372-81.667594-21.846366-23.577673-59.798447-37.974862-111.578207-37.974861H1103.252875v454.992147h200.171031c76.496452-1.139018 138.618496-59.228938 138.618496-130.577028-0.569509-51.75698-18.976041-88.570043-79.959067-116.74935m-77.065961 168.52911h-86.861515V112.740006h60.983026c26.447999 0 48.886654 20.137839 48.886654 47.155347s-22.438655 48.909435-48.886654 48.909434h-32.211431v82.237103h59.228939c32.234211 0 56.381393 26.470779 56.381393 58.68221-1.139018 32.21143-22.438655 55.811884-57.520412 57.520411"
        fill="#E21B4D"
        p-id="1966"></path>
    <path
        d="M419.887611 311.749238a55.242375 55.242375 0 0 1 110.439189 0h-110.439189z m200.171031 51.77976c0.592289-6.33294 1.139018-12.665881 1.139018-18.97604 1.161798-98.365598-63.261062-151.853885-146.090454-151.853886s-150.122578 67.885475-150.122578 151.853886 67.293186 151.853885 150.122578 151.853885c63.283842 0 112.762786-28.771596 138.048986-73.626126l-73.626126-33.942738c-9.203266 20.137839-31.049632 34.512247-56.950902 34.512247-33.942738 0-62.099264-25.87849-62.099264-59.821228h199.578742M1803.247803 9.203266h90.87086v476.838513h-90.87086zM1957.994794 9.203266h90.87086v476.838513h-90.87086z"
        fill="#E21B4D"
        p-id="1967"></path>
    <path
        d="M815.628039 801.253632c0-123.08229 99.527396-222.609686 222.609687-222.609686s222.609686 99.527396 222.609686 222.609686-99.527396 222.609686-222.609686 222.609686-222.609686-100.096906-222.609687-222.609686"
        fill="#FFD300"
        p-id="1968"></path>
    <path
        d="M859.343552 668.968076c3.462615 1.708527 6.902449 3.439834 10.934573 5.740651 16.675224 11.504082 27.609797 21.276857 52.918778 42.576495 7.471958 7.471958 16.105715 19.54555 22.438656 27.017508 13.804899 17.267514 23.577673 29.341105 25.2862 43.738292 4.054904 28.748815 8.064248 44.85453 18.998821 74.195636 1.139018 2.870325 5.763431 6.902449 8.633757 10.342284 6.902449 8.633757 9.772775 22.438655 22.438655 29.910613 6.902449 4.032124 8.041467 4.601633 10.342284 6.332941 3.462615 2.870325-2.300816 13.212609-20.137839 10.934573 9.203266 4.601633 8.064248 14.943917-5.171142 15.513426-25.87849 1.139018-41.984205-13.804899-45.44682-17.814243-1.708527-1.731307-6.902449 5.171142-16.105715 8.610977-9.203266 4.601633-21.869146 0-31.619141 1.731307-9.203266 1.731307-21.299637 7.471958-31.072412 8.064248-17.244733 0.569509-19.54555-11.504082-19.545549-21.869146v-4.601633c-1.731307 6.33294-8.064248 17.267514-8.064248 17.267513-2.278036 5.171142-5.740651 11.504082-12.073591 13.804899l-18.406532 2.278036c-14.374408 6.33294-28.771596 10.934573-43.738293 16.128495-8.610976 1.708527-18.383751 0-24.716691-5.193922-5.171142-4.009344-8.041467-9.203266-10.934573-14.374408-2.870325-1.139018-6.902449 0-10.342284-1.139018-2.870325-0.592289-4.601633-2.893106-6.33294-4.601633l-12.643101-21.299637a14.283286 14.283286 0 0 1 0-9.772775c2.278036-4.601633 7.471958-6.902449 12.643101-6.902449 9.203266-0.569509 19.56833-3.439834 28.771595 0 4.009344-4.601633 10.342284-4.032124 16.105715-5.171142-2.300816-3.462615-5.763431-5.171142-8.656537-8.064248-16.652444 4.032124-35.081756 1.139018-51.16469-1.708527-14.966697-3.462615-27.609797 5.171142-42.576495 2.870326l-4.601632 9.772775c-6.902449 7.471958-7.471958 20.137839-17.837023 25.30898-7.471958 1.731307-13.212609 6.902449-19.54555 10.365065-11.504082 6.31016-27.040288 3.439834-39.683388 1.139018-5.193922-0.569509-8.656537 0-13.23539 1.731307-4.032124 2.870325-8.633757 7.471958-13.212609 10.934573-7.517519 2.870325-13.827679 9.203266-21.869147 9.772775-4.601633 0-9.203266-2.870325-13.804898-1.731307-5.763431 6.33294-8.656537 16.675224-17.837023 19.56833-9.203266 2.870325-20.730128 0.569509-29.910614-1.731308-2.870325 1.139018-4.601633 3.439834-8.064247 2.870326-6.31016-1.731307-12.6431-3.439834-18.406532-6.90245-2.278036-2.300816-2.870325-5.171142-3.439834-7.471958 0-4.032124 3.439834-7.471958 5.171142-10.934573 0.569509-4.032124 0.569509-9.795555 2.300816-13.804899 2.870325-6.33294 9.203266-10.342284 15.536206-13.212609a14.875576 14.875576 0 0 1 7.471958-10.934573c7.471958-4.032124 15.536206-13.23539 25.308981-8.064248l10.365065 8.633757c9.203266-4.032124 6.902449-13.23539 11.504082-20.730129 2.278036-5.148362 5.171142-10.911793 10.934573-10.911793 4.009344-0.569509 8.610976 0.569509 12.6431 0 5.740651-1.731307 12.073591-4.032124 16.105715-8.633756l-0.569509-3.439835c-5.763431-10.934573-7.494739-24.147182-8.064247-37.382572-10.342284 1.139018-21.276857 2.870325-32.211431 0.569509-16.105715-2.300816-31.641921-14.966697-37.952081-31.072412-6.902449-15.513426-4.032124-37.359792 6.90245-50.617962a186.115548 186.115548 0 0 1 28.748815-27.609797c-3.439834-1.139018-7.471958-0.569509-10.934573-1.708527-14.943917-2.300816-29.910614-15.536206-33.350449-30.502903-2.300816-9.772775 0-18.976041 4.601633-27.017508 1.731307-1.731307 3.439834-3.462615 6.332941-2.300817 7.471958 2.870325 9.772775 6.902449 16.675224 10.342284l4.032124 2.300816c18.976041 6.33294 44.285021 6.33294 51.756979 29.910614 4.601633 18.406532-6.902449 32.21143-20.137838 42.576495-10.342284 7.471958-20.707348 16.675224-25.87849 27.609797-2.278036 8.041467-1.139018 16.105715 5.763431 21.869146 6.902449 6.879669 18.976041 6.879669 27.609797 3.417054 16.105715-6.879669 31.049632-17.244733 45.42404-28.179306 13.804899-10.342284 30.502903-14.351627 48.317145-14.943917 8.064248-1.731307 14.966697-5.171142 21.299637-10.365064 10.934573-10.342284 22.415875-18.976041 36.220774-22.415875 6.33294-1.139018 12.665881-1.731307 18.998821-2.300816 5.171142-2.300816 8.610976-8.656537 12.6431-11.504083 18.976041-16.698004 44.285021-16.105715 64.422861-29.341104 11.504082-8.633757 24.147182-14.374408 39.113879-13.804899 6.902449 0.569509 13.212609 1.731307 18.976041 4.032124l4.601633 2.278036z m18.998821 195.569398c-12.665881 0.569509-20.730128 3.439834-29.341105 4.601633 0.569509 8.041467 5.171142 14.943917 11.504082 23.577673 3.439834-13.212609 14.374408-18.406532 17.837023-28.179306M1202.165202 867.4078c5.763431 8.633757 9.203266 17.244733 14.374408 26.447999 5.193922-9.772775 9.795555-18.976041 14.397188-24.716692-0.592289-0.592289-15.536206 1.139018-28.771596-1.731307m12.073591 42.553714c-0.569509 1.731307-1.708527 2.300816-4.009343 2.300816 1.708527 8.064248-4.032124 23.008164-18.406532 23.600454-9.795555 0.569509-25.90127-9.203266-35.081755-9.795555-9.795555-0.569509-27.632578 6.902449-37.974862-8.610977-13.804899 16.675224-29.910614 21.276857-43.715512 20.707348-8.041467 0-16.675224-4.601633-4.601633-14.966697-26.447999 8.633757-26.447999-9.203266-21.869147-12.6431 2.893106-2.300816 6.33294-4.032124 16.128496-13.804899 36.790283-38.544371 23.008164-105.268047 63.261062-149.553069 15.536206-17.267514 28.179306-27.040288 59.821227-49.478943 10.934573-7.471958 21.869146-18.406532 32.211431-25.87849l0.569509 1.139018v-0.569509c6.33294-4.601633 12.073591-9.203266 18.97604-10.934573 14.397188-1.708527 27.609797 2.893106 38.544371 10.365064 5.763431 4.032124 10.365064 8.633757 14.966697 14.374408 3.439834 3.462615 8.610976 3.462615 13.212609 5.171141 13.23539 2.300816 24.739472 7.494739 35.674045 14.397188 7.471958 4.601633 13.804899 12.6431 23.008165 13.804899 10.934573 1.708527 20.707348 5.171142 30.480122 10.934573 11.504082 7.471958 21.869146 16.675224 35.674046 18.976041 27.609797 2.870325 50.617962 18.406532 72.464327 33.942738 12.665881 7.471958 27.609797 16.082935 43.146004 10.934573a15.445085 15.445085 0 0 0 9.203266-9.795555c1.139018-10.365064-5.171142-18.406532-11.504083-25.87849-13.212609-15.536206-36.220774-28.771596-33.373228-51.210251 4.032124-16.675224 22.438655-26.447999 36.813063-31.049632 8.064248-2.870325 17.837023-1.731307 24.739472-8.633757 3.462615-2.278036 5.171142-10.342284 10.934573-7.471958 4.601633 2.870325 5.171142 8.633757 5.740651 13.804898 2.300816 16.105715-1.139018 32.21143-16.105715 41.414696-6.902449 4.601633-14.351627 6.33294-22.415875 8.041468 12.073591 9.795555 24.147182 21.869146 31.049631 35.674045 4.032124 8.041467 6.33294 14.943917 6.90245 24.147182-0.569509 17.267514-10.934573 32.21143-25.87849 40.845187-8.633757 4.601633-18.406532 6.33294-28.771596 6.33294-4.009344 0-7.471958-1.139018-10.934573-1.139018 1.731307 8.041467 1.731307 18.976041 0 28.179307-0.569509 4.601633-3.417054 9.772775-3.417054 15.513426 2.278036 2.893106 5.740651 2.893106 8.610976 2.893105 7.471958 0 16.675224-0.592289 20.707348 7.471959 3.439834 7.471958 5.171142 16.105715 8.041468 23.577673 1.139018 1.139018 1.731307 4.032124 3.462614 3.462615 5.171142-4.601633 10.342284-10.934573 17.837023-9.203266 6.902449 4.601633 13.804899 9.772775 20.707348 14.943917 1.708527 1.731307 2.278036 4.032124 2.870325 6.902449 5.740651 2.300816 13.212609 6.33294 14.943917 13.21261 1.139018 4.624413 0.592289 9.226046 1.731308 13.25817 1.731307 4.601633 6.33294 10.342284 2.870325 16.105715l-2.278036 1.708527-21.869146 6.902449c-1.731307 0-3.462615-1.139018-5.171142-2.870325-11.504082-0.569509-25.308981 2.870325-34.512247-5.171142a50.071233 50.071233 0 0 1-9.795555-12.073592c-6.902449 3.439834-16.675224 5.740651-23.577674 1.139019-14.374408-10.934573-28.748815-21.869146-48.294365-21.276858-8.656537 1.731307-18.998821 4.032124-27.632577 0.56951-8.041467-5.740651-17.244733-8.633757-23.577674-17.244734-9.203266-9.795555-9.203266-21.299637-12.66588-33.373228-12.6431 2.870325-26.447999 1.139018-39.11388 0.569509-10.342284-0.569509-20.115059 1.139018-29.910614 3.462615a166.524438 166.524438 0 0 1-37.952081 2.870325l-6.33294 4.601633c2.870325 0.569509 5.763431 0.569509 8.064248 2.870325l2.278036 2.300817c10.365064 1.139018 22.438655-0.569509 32.23421 1.731307 2.278036 0.569509 4.601633 2.870325 5.740651 5.171142 1.139018 2.893106 1.139018 6.33294-0.569509 8.656537-5.171142 6.879669-8.064248 14.943917-14.966697 20.684568-1.708527 2.300816-6.902449-0.569509-7.471958 3.462615-2.278036 10.342284-12.073591 18.976041-21.869147 21.276857a28.019844 28.019844 0 0 1-12.073591-1.139018 867.248337 867.248337 0 0 0-36.220774-10.934573c-4.032124-1.139018-7.494739-5.193922-10.934573-7.494739-5.171142 0-12.665881 1.731307-16.105715-2.870326-1.731307-1.139018-3.462615-5.171142-4.032124-6.902449-4.032124-5.171142-6.902449-14.374408-8.633757-22.438655"
        fill="#FFD300"
        p-id="1969"></path>
    <path
        d="M853.580121 741.432404c3.462615 8.633757 3.462615 20.137839 1.161798 29.341105-0.569509 0.569509-1.139018 0.569509-1.708527 0-1.731307-8.064248-3.462615-16.105715-6.33294-24.147183-1.731307-4.624413-7.471958-8.656537-5.171142-13.827679 1.139018-1.139018 3.439834-1.139018 5.171142-0.569509 2.870325 2.870325 4.601633 5.763431 6.902449 9.203266m92.032658 80.528576c6.33294 7.471958 10.934573 15.536206 8.633756 25.308981-1.161798 1.731307-0.592289 5.171142-3.462614 5.763431-1.139018 0.569509-2.300816-0.592289-2.300817-1.731308-0.569509-5.171142-0.569509-10.934573-3.439834-14.966697-3.462615-3.439834-7.494739-10.342284-13.23539-10.342283-4.032124 1.139018-6.902449 5.740651-9.203266 8.633756 0 0.569509-0.569509 0.569509-1.139018 0-2.323597-5.763431 2.278036-10.365064 4.009344-14.966697 3.462615-3.439834 2.870325-13.212609 10.365064-10.342284 5.171142 3.439834 6.31016 9.203266 9.772775 12.643101m-12.073592 68.454984c0.569509 3.439834 0.569509 8.633757-2.893105 10.934573-3.439834 1.139018-8.041467 1.708527-12.073592 1.139018-1.139018-0.569509-2.300816-1.139018-1.731307-2.300816 1.731307-5.171142 6.902449-10.934573 12.665881-12.073591 1.139018 0 3.439834 0 4.032123 2.278036m-419.910391-209.921025c13.804899 3.439834 28.771596 3.439834 39.11388 14.351627 5.763431 6.92523 6.33294 18.998821 1.731307 25.90127-8.064248 13.804899-24.147182 20.730128-33.942738 32.80372-9.795555 8.041467-13.212609 20.684568-10.342283 33.350448 3.439834 10.934573 14.351627 18.406532 25.2862 18.976041 17.267514 0.569509 29.933394-8.041467 43.738293-16.105715 13.804899-9.795555 26.447999-22.438655 41.984205-26.447999 10.342284-3.462615 21.869146-1.731307 32.21143-5.763432 10.934573-2.278036 19.54555-11.504082 28.179307-19.545549 9.795555-8.064248 21.276857-12.665881 33.942737-12.073592 11.504082 1.708527 17.837023-8.656537 25.87849-15.536206 13.212609-12.073591 30.480123-13.23539 46.016329-20.137839 10.934573-3.462615 19.56833-11.504082 29.910614-16.675224 9.795555-4.032124 23.008164-5.193922 32.803719-1.139018 6.31016 2.847545 13.212609 5.740651 18.976041 10.342284l46.585838 39.11388c0.569509 1.708527 2.278036 2.870325 3.439834 3.439834 13.23539 16.105715 27.040288 31.641921 37.974862 49.478944 3.439834 6.31016 5.171142 12.6431 6.902449 19.545549 2.278036 26.470779 9.203266 49.478944 17.837023 72.487109 2.278036 3.439834 6.902449 6.31016 9.203266 9.772774 7.471958 10.342284 12.073591 23.577673 24.147182 30.480123l6.902449 3.462615a1.754088 1.754088 0 0 1 0 2.278036l-1.139018 1.161799c-14.397188 2.300816-25.308981-6.33294-32.803719-16.675225-4.601633-9.203266-10.934573-18.976041-21.276857-23.008164-0.569509 0-1.139018 0.569509-1.139018 0.569509 1.139018 3.462615 4.601633 5.763431 5.740651 8.633757 4.032124 6.33294 7.471958 13.212609 9.203265 20.137839 2.300816 7.471958 10.365064 12.6431 16.675225 16.675224l9.203265 4.601633c1.139018 0.569509 1.731307 2.278036 0.59229 3.439834l-1.161799 0.59229c-15.536206 0.569509-29.341105-4.601633-40.252897-16.105716a12.802563 12.802563 0 0 0-9.795555-5.193922c-6.902449 6.33294-13.804899 12.073591-23.008165 12.665881-9.772775-1.731307-20.115059-1.731307-28.748815 1.731307-8.064248 2.870325-16.105715 6.31016-24.739472 6.31016-4.032124 0-8.633757-1.708527-10.342284-5.740651 0-5.171142-3.462615-10.934573-0.592289-16.105715l5.763431-8.633757c0-1.139018-0.569509-2.278036-1.731307-2.278036-2.278036-0.592289-6.33294 3.417054-7.471959-0.592289 0.569509-8.633757 9.203266-14.374408 14.943917-20.137839 1.139018-6.902449 4.032124-13.212609 9.203266-18.976041 0-0.569509-0.569509-1.731307-1.708527-1.731307-7.494739 1.139018-14.966697 2.870325-23.008165 2.870325-6.33294 3.462615-14.397188 5.763431-21.869146 3.462615-1.731307-1.139018-1.139018-2.870325-0.569509-4.032124 8.041467-10.934573 10.934573-24.739472 8.633756-37.952081-0.592289-0.592289-0.592289-1.731307-1.731307-1.731307s-1.139018 1.139018-1.731307 1.731307c-1.731307 12.6431-5.740651 22.415875-12.643101 33.350449-5.193922 5.171142-13.23539 5.171142-20.137839 6.902449-1.731307 0.569509-3.462615 2.300816-3.462614 4.032124 0 4.601633 2.893106 7.471958 4.601632 11.504082l14.966697 27.609797c0.569509 7.471958-2.870325 14.943917-4.601632 21.869147 0.569509 1.139018 1.731307 0.569509 2.870325 0 5.171142-4.624413 8.633757-10.934573 10.934573-17.837023 0.569509-2.893106-0.569509-6.33294-1.731307-8.656537l-15.536206-31.049632c1.139018-1.708527 3.462615-1.708527 5.193922-2.278036 3.439834 0 6.902449 1.708527 10.342284 2.870326 3.462615 9.203266 7.471958 18.976041 13.804899 27.017508 1.139018 5.193922 2.870325 12.073591-0.56951 16.105715a128.344553 128.344553 0 0 1-11.504082 18.998821c-4.032124 4.009344-9.795555 3.439834-15.536206 4.009343h-1.731307c-13.804899 7.494739-28.179306 12.073591-43.123223 16.698005-6.33294 2.870325-13.804899 0.569509-18.998821-3.462615-5.171142-4.032124-7.471958-9.795555-10.934573-14.943917-4.009344-5.193922-10.342284-0.592289-14.943917-3.462615-4.032124-6.33294-8.041467-12.6431-11.504082-19.545549 0-1.731307 0-3.462615 1.731307-4.601633 5.171142-1.731307 10.934573-1.731307 16.675224-2.300817 5.171142-0.592289 10.934573 0.569509 14.374408 4.009344 6.902449 8.064248 9.795555 18.998821 20.137839 24.147182 8.064248 0.592289 14.966697-1.708527 21.869146-5.148361 4.009344-2.300816 8.610976-5.763431 8.610977-10.934574-0.569509-10.365064-7.471958-18.406532-16.105715-24.147182-8.610976-4.624413-17.814242-10.934573-24.147183-18.998821-3.462615-4.601633-4.032124-9.795555-5.763431-14.374408-0.569509-1.139018-2.870325-1.139018-3.439835-0.569509-3.462615 2.870325-0.569509 8.041467-0.569509 11.504083 0.569509 2.278036 1.708527 5.171142 0.569509 6.902449-5.171142 4.009344-12.073591 1.708527-18.406531 2.278036-12.665881-0.569509-24.739472-5.740651-37.974862-4.578853-12.6431 0.569509-29.910614 9.203266-39.113879-3.462614-4.601633-12.073591-3.439834-26.447999-1.139018-38.544371 0-1.139018-1.139018-2.278036-2.300817-2.278036-1.139018-0.592289-2.300816 0-2.870325 1.139018-3.462615 12.073591-4.032124 25.286201-6.90245 37.952081-4.601633 10.934573-12.665881 22.438655-23.600453 28.202087-9.772775 5.171142-21.276857 6.902449-33.350449 8.041467-21.869146 0.569509-41.984205 4.601633-55.811884 23.577674-1.139018 1.731307-2.870325 3.462615-2.278036 5.763431 0.569509 0.569509 2.278036 1.139018 2.870326 0.569509 14.943917-16.675224 33.942738-23.577673 55.811884-22.438655 20.684568 0 41.391916-3.439834 54.627305-21.276857 3.439834-4.032124 5.740651-8.041467 8.633757-12.643101 2.278036 0 4.009344 2.870325 5.740651 4.009344 0.569509 6.33294-4.601633 10.365064-6.90245 15.536206-2.870325 5.763431-5.740651 12.665881-11.504082 16.105715-6.902449 1.731307-12.6431 6.33294-18.976041 9.795555a35.150097 35.150097 0 0 1-21.869146 2.278036c-9.203266-1.708527-21.869146-4.009344-31.049632 0-4.601633 2.893106-8.633757 8.064248-13.212609 10.934574-6.355721 2.870325-12.096372 8.064248-19.59111 7.471958-5.171142-1.139018-11.481302-4.601633-16.082935 0-5.763431 5.193922-6.902449 14.397188-14.397188 17.837022-8.610976 4.601633-17.814242 0-26.447999-0.569509 1.139018-8.633757 2.278036-16.675224 8.041467-23.008164 3.462615-0.569509 6.33294-1.139018 9.203266-3.462615 3.462615-2.870325 5.763431-6.902449 8.064248-10.934573 7.471958-4.578853 16.105715-8.041467 20.707348-16.082935 3.439834-7.494739 3.439834-14.397188 9.203266-21.299637l2.870325-1.139018 15.536206-1.139018c6.33294-2.893106 12.073591-5.763431 17.837023-10.365065 1.708527-1.731307 2.278036-4.601633 1.708527-7.471958-2.870325-7.494739-5.171142-12.665881-6.90245-20.730128-1.708527-8.041467-0.569509-16.082935-1.708527-25.286201-0.592289-0.592289-1.139018-2.300816-2.300816-2.300816-10.365064 2.278036-20.137839 5.171142-31.664702 3.439834-15.490645-1.731307-31.619141-12.073591-37.359791-27.609797-5.193922-13.212609-4.032124-32.21143 5.74065-43.146003 9.203266-11.504082 20.730128-20.115059 32.211431-29.910614 1.731307-1.139018 1.731307-3.439834 2.300816-5.171142 0-2.278036-2.278036-4.032124-4.032124-5.171142-6.902449-1.731307-14.943917 0.569509-21.869146-2.300817-12.073591-4.032124-21.254077-15.536206-23.008165-28.179306a22.347534 22.347534 0 0 1 3.462615-14.966697c9.203266 8.064248 16.105715 14.966697 24.739472 17.267514m-34.512247 257.099152v1.731307c-2.870325 6.902449-4.601633 14.966697-6.902449 23.008165a48.522169 48.522169 0 0 1-13.804899-4.032124c-1.139018-1.139018 0-2.278036 0-3.439835 5.171142-4.601633 3.462615-10.365064 4.601633-16.675224 0.569509-3.462615 4.032124-6.33294 7.471959-8.064247 4.032124 0.569509 6.33294 4.601633 8.656537 7.471958m25.2862-24.147183c-2.870325 5.740651-6.902449 12.6431-13.212609 16.105716a11.207938 11.207938 0 0 1-7.494739-0.569509c-1.139018-1.161798-3.439834-2.300816-3.439834-4.601633 0.569509-2.300816-0.592289-5.193922 1.708527-6.332941 4.601633-2.870325 9.203266-5.763431 13.804899-9.795555 1.139018-0.569509 3.462615-1.139018 4.032123 0 2.300816 1.731307 4.032124 2.893106 4.601633 5.193922m288.171565-2.300816c0.592289 2.278036 4.032124 5.171142 1.731307 7.471958-4.601633 3.462615-9.795555 5.763431-16.105715 5.171142-4.601633-3.439834-4.032124-9.772775-8.041467-14.374407-1.139018-3.439834-6.33294-3.439834-5.193922-6.90245l1.731307-1.139018c6.33294 0 12.665881 0 18.976041-1.161798 6.33294-0.569509 4.601633 6.902449 6.902449 10.934573M1156.148873 817.359347c3.462615 4.601633 6.33294 9.203266 8.633757 14.966697 0.569509 1.139018 0 2.278036-0.569509 3.439834-0.592289 1.139018-1.731307 2.300816-3.462615 1.139018-4.032124-1.139018-3.439834-7.471958-8.633757-6.879669-3.439834 0-5.740651 2.870325-8.610976 4.601633-5.193922 4.601633-12.073591 9.203266-13.23539 16.105715-1.139018 2.278036-0.569509 6.31016-2.870325 7.471959-1.139018 0.569509-2.893106-0.569509-2.893106-1.731308-0.569509-9.203266 2.300816-17.837023 8.656537-24.147182 6.31016-5.193922 10.911793-12.665881 16.082935-18.998821 3.462615-0.569509 5.763431 1.731307 6.902449 4.032124m2.300817 76.496452c1.139018 2.300816 3.462615 5.193922 1.731307 8.064247-2.300816 1.731307-6.33294 0.569509-9.203266 0.569509-3.462615-1.731307-4.601633-6.33294-4.601633-10.342284 0-1.161798 0-1.731307 1.139018-2.893105 4.032124 0 8.064248 1.139018 10.934574 4.601633m86.292007-176.001068c1.708527 2.278036 0 4.601633-1.139019 6.33294-8.064248 7.471958-17.859803 15.513426-23.600453 24.716692a31.983627 31.983627 0 0 0-5.171142 9.795555c0 0.569509-0.592289 0.569509-1.139018 0.569509-1.754088-4.601633 0.546729-9.795555 1.708527-14.374408 4.032124-10.934573 13.212609-21.299637 23.008164-28.771596 1.139018-0.569509 5.171142-1.139018 6.332941 1.731308m32.780939-36.813063c6.33294 4.032124 8.633757 12.6431 16.105715 14.374407 12.6431 2.870325 25.286201 5.763431 36.813063 11.504083 8.041467 4.032124 15.536206 9.795555 23.008164 16.105715 6.902449 3.462615 15.536206 3.462615 23.008165 5.763431 10.934573 2.870325 19.54555 10.934573 29.341105 17.244733 12.6431 9.795555 30.480123 8.633757 44.87731 14.966697 23.008164 7.471958 41.391916 25.286201 62.668773 35.651265 10.934573 5.763431 27.609797 8.064248 38.544371 1.731307 7.471958-5.171142 12.073591-12.073591 10.365064-21.869146-4.032124-23.577673-29.910614-35.651265-42.006986-55.219595-2.278036-4.601633-4.009344-10.934573-2.870325-16.105715 4.601633-11.504082 16.675224-17.814242 27.040288-21.869146 8.041467-4.009344 18.406532-2.847545 25.87849-7.449178 2.870325-1.731307 5.171142-4.032124 6.90245-5.763432 1.731307 0 1.731307 1.731307 2.300816 2.870326 2.300816 13.804899 0 28.202087-12.073591 36.243554-4.601633 3.462615-10.365064 4.601633-15.536206 5.763431-4.601633 1.708527-13.804899-1.731307-13.21261 6.31016 1.139018 4.032124 4.578853 6.33294 7.471959 9.203266 16.105715 13.23539 31.049632 30.502903 32.780939 51.210251 0.569509 16.105715-10.365064 29.910614-24.147182 36.813063-10.365064 4.009344-23.008164 5.740651-33.942738 2.870326-2.893106-0.569509-7.494739-3.462615-9.795555 0.569509-0.569509 4.601633 2.300816 8.064248 2.300816 12.073591 1.139018 7.494739 1.139018 17.267514-1.139018 24.739472-1.139018 5.763431-6.902449 12.665881-1.731307 18.406531 5.171142 8.064248 15.536206 5.763431 24.147182 6.90245 4.624413 0.569509 6.33294 5.763431 7.494739 9.203266 1.731307 4.601633 1.731307 9.795555 3.439834 13.212609 0 8.656537 9.795555 12.096372 14.397188 17.859803 5.740651 6.31016 10.934573 17.244733 20.707348 16.675224 3.439834 6.902449 5.171142 13.212609 6.31016 21.276857l-1.139018 1.139018c-8.064248 0-18.976041 2.323597-24.739472-3.439835-6.902449-4.601633-9.203266-17.244733-19.545549-13.804898-4.601633 3.462615-10.934573 4.601633-16.105715 2.300816-5.193922-1.731307-8.656537-6.33294-13.23539-9.203266-13.804899-10.342284-32.21143-15.536206-50.048453-11.504082-10.342284 2.870325-18.406532-4.601633-26.447999-9.203266-10.934573-4.601633-13.804899-16.105715-16.105715-25.87849l-1.731307-12.073591c0-1.161798 1.139018-2.300816 2.278036-2.893106h1.754088c6.31016 14.397188 18.406532 30.502903 33.942737 35.674045 14.351627 5.740651 27.587017-1.731307 43.123223 1.139019 14.374408 1.731307 25.87849 10.934573 36.813064 19.568329 1.139018 0 1.731307-0.569509 2.300816-1.731307v-1.139018c-13.212609-16.698004-31.641921-25.308981-52.918778-23.600454-17.837023 3.462615-35.081756-2.278036-45.44682-17.244733a72.464328 72.464328 0 0 1-11.504082-27.609797c-1.708527-11.504082-4.009344-24.147182-8.041468-34.512247-1.139018-0.569509-2.300816-1.731307-3.462615-1.139018l-1.139018 1.708527c1.731307 10.934573 5.171142 24.147182 1.139018 35.674045-2.870325 9.203266-12.073591 12.6431-20.707348 13.212609-8.610976 0.592289-16.675224-1.139018-25.878489-1.139018-20.707348-0.569509-39.11388 7.471958-60.390737 5.740651 1.731307-5.171142 5.171142-10.342284 3.439834-16.105715-0.569509-1.139018-2.278036-1.139018-3.439834-1.139018-4.032124 2.278036-3.462615 7.471958-5.763431 10.934573-4.601633 7.471958-13.212609 14.351627-21.846366 16.105715-6.33294 4.601633-12.073591 10.934573-17.267514 16.675225-1.708527 1.731307-1.708527 5.171142-1.139018 7.471958 4.032124 10.365064 16.105715 11.504082 25.308981 14.374408a10.433405 10.433405 0 0 0 10.934573-5.171142c4.009344-6.33294 4.601633-16.675224 13.804899-17.837023h20.115058a7.745323 7.745323 0 0 1 4.032124 3.462615l-0.569509 2.870326c-4.601633 5.171142-6.33294 12.665881-12.073591 16.105715-3.462615 1.139018-7.494739 0-9.795555 2.870325-1.139018 6.902449-2.870325 14.397188-9.772775 17.837023-5.171142 4.601633-12.6431 2.300816-18.406531 0.569509-10.934573-4.009344-21.869146-6.31016-32.78094-9.772775-4.601633-1.139018-6.33294-6.902449-11.504082-8.041468-4.601633-1.161798-9.795555 2.278036-13.804899-1.731307a60.026251 60.026251 0 0 1-4.601632-14.374408 38.179885 38.179885 0 0 1-3.462615-11.504082 14.465529 14.465529 0 0 1 1.161798-8.656537l14.943917-27.017508c1.161798-1.731307 2.300816-3.439834 4.032124-4.032124 3.462615 0.592289 7.471958 2.300816 10.934573 4.032124l-0.569509 1.731307-15.536206 23.577674c-3.462615 7.471958 0 16.105715 3.439834 22.438655 0.592289 0.569509 1.161798 1.731307 1.731308 1.139018-0.569509-4.601633-1.139018-9.203266 0-14.374407 1.139018-4.601633 4.032124-8.633757 6.33294-12.643101l12.073591-17.837022c1.139018-2.870325 1.139018-7.471958-1.139018-10.365064-5.193922-5.171142-12.665881-6.902449-17.267513-13.804899-9.772775-13.212609-10.934573-28.748815-12.073592-45.424039 0-1.139018-1.139018-2.893106-2.870325-3.462615-1.139018-0.569509-2.300816 1.139018-2.893106 1.731307-2.870325 10.934573-1.139018 24.147182 1.731308 33.942738 1.731307 7.471958 5.171142 14.943917 8.633756 21.869146 0.569509 1.139018-0.569509 2.847545-1.731307 3.417054a106.384285 106.384285 0 0 1-23.577674-1.139018c-10.365064-1.731307-17.837023-9.795555-26.470779-16.105715-1.139018-0.569509-1.708527 0.569509-2.278036 1.139018 2.278036 11.526863 14.943917 18.429312 18.976041 28.771596 2.278036 8.633757 10.934573 14.966697 12.6431 24.147182 0 1.161798-1.139018 2.893106-2.278036 3.462615-2.893106 0.569509-5.763431-1.139018-8.656537 0.569509-0.569509 5.193922 2.893106 10.365064 0.592289 14.966697-2.893106 4.601633-6.902449 9.772775-12.073591 9.772775-10.365064-3.439834-20.730128-8.041467-31.072412-10.934573-7.471958-0.569509-14.966697 0.592289-21.869147 1.139018-6.902449-1.139018-11.504082-7.449178-16.675224-10.911793-1.731307-0.569509-3.439834-0.569509-4.601633 0.569509-11.504082 11.504082-24.147182 24.147182-41.414696 23.600454-1.139018 0-1.708527-1.161798-1.708527-2.300816v-1.139018c7.471958-6.92523 16.675224-13.827679 20.115059-23.600454 2.300816-8.064248 9.203266-13.804899 12.073591-21.276857 0.592289-1.139018-0.569509-1.731307-1.708527-2.300817l-1.731307 1.139018c-8.633757 8.633757-14.966697 18.406532-21.276857 27.609798-6.33294 6.33294-15.536206 10.365064-25.308981 8.064247-1.139018-0.592289-1.139018-2.300816-0.569509-3.462614 35.651265-21.869146 39.683389-60.960246 49.456163-96.634291 6.902449-23.577673 12.073591-47.747636 30.480123-66.723677 27.609797-30.480123 62.122044-48.294365 92.602167-74.765144 4.601633-4.032124 9.203266-8.064248 14.966697-8.064248 14.943917-1.139018 26.447999 4.601633 36.813063 13.212609m328.447242 254.251608c2.870325 4.032124 1.708527 10.365064 2.870326 14.966697 0.569509 3.439834 5.171142 6.33294 2.870325 9.772774l-12.6431 4.032124c-2.300816 0-1.139018-2.870325-2.300816-4.032124-1.139018-7.471958-2.893106-12.6431-5.193923-19.545549-0.569509-4.032124 3.462615-6.902449 6.332941-9.203266 2.870325-1.161798 5.171142 2.278036 8.064247 4.009344M1576.628774 909.392005c4.601633 4.032124 10.934573 6.902449 14.374407 12.073591 0.569509 2.300816-1.139018 4.601633-2.278036 6.33294a9.522191 9.522191 0 0 1-6.92523 2.870326c-2.870325 0-5.171142-1.708527-6.902449-4.009344-2.870325-4.601633-6.902449-8.656537-8.041467-13.23539 1.708527-2.870325 5.740651-7.471958 9.772775-4.032123m-277.236992-4.601633c-0.592289 5.763431-2.323597 10.934573-4.624413 16.105715-1.708527 3.462615-6.902449 2.300816-10.342284 1.731307-3.462615-1.139018-9.203266-1.731307-9.795555-6.902449-0.569509-4.601633 1.731307-9.203266 4.032124-12.665881 5.193922-0.569509 11.504082 0.592289 16.698004-0.569509 2.278036 0 4.009344 0.569509 4.009344 2.300817M2143.768637 6.33294c10.365064 0 18.998821 3.439834 25.90127 10.934574 6.902449 6.879669 10.934573 16.082935 10.934573 25.878489 0 10.342284-3.462615 18.976041-10.934573 25.87849-6.902449 7.471958-16.105715 10.934573-25.90127 10.934574-10.342284 0-18.976041-3.462615-26.447999-10.934574a36.58526 36.58526 0 0 1-10.934573-25.87849c0-10.365064 3.462615-18.998821 10.934573-25.90127 7.471958-6.902449 16.105715-10.934573 26.447999-10.934573M2186.91464 43.168784c0-11.504082-4.032124-21.869146-12.6431-30.502903C2165.615003 4.601633 2155.865009 0 2143.768637 0c-12.073591 0-21.869146 4.032124-30.480123 12.6431-8.633757 8.656537-12.6431 18.406532-12.6431 30.502903s4.009344 21.869146 12.6431 30.480123c8.633757 8.633757 18.406532 12.6431 30.480123 12.6431s21.869146-4.009344 30.502903-12.6431c8.041467-8.064248 12.6431-18.406532 12.6431-30.480123m-31.641921-9.203265c0 3.439834-1.708527 6.31016-5.171142 7.471958a26.653022 26.653022 0 0 1-8.041467 1.139018h-7.494739v-17.244733h6.90245c4.601633 0 8.064248 0.569509 10.365064 1.731307a7.517519 7.517519 0 0 1 3.439834 6.90245M2126.546684 19.54555V66.746457h8.041468v-18.406531h6.33294c4.601633 0 7.471958 0.569509 9.203266 1.731307 2.870325 1.708527 4.601633 5.171142 4.601633 10.934573v5.740651h8.064247l-0.592289-0.569509c0-0.592289-0.569509-1.139018-0.569509-2.300816V56.950902c0-2.300816-1.139018-4.601633-2.300817-7.494739a12.59754 12.59754 0 0 0-8.041467-4.601633 19.408867 19.408867 0 0 0 6.902449-2.278036c2.870325-1.731307 4.601633-5.193922 4.601633-9.226046 0-5.740651-2.300816-9.772775-7.494738-12.073591-2.870325-1.139018-6.902449-1.731307-13.21261-1.731307h-15.536206z"
        fill="#E21B4D"
        p-id="1970"></path>
</svg>